<?xml version="1.0" encoding="UTF-8" standalone="no"?>
<!DOCTYPE svg PUBLIC "-//W3C//DTD SVG 1.1//EN" "http://www.w3.org/Graphics/SVG/1.1/DTD/svg11.dtd">
<svg width="100%" height="100%" viewBox="0 0 760 142" version="1.1" xmlns="http://www.w3.org/2000/svg" xmlns:xlink="http://www.w3.org/1999/xlink" xml:space="preserve" xmlns:serif="http://www.serif.com/" style="fill-rule:evenodd;clip-rule:evenodd;stroke-linejoin:round;stroke-miterlimit:2;">
    <g id="Artboard1" transform="matrix(0.750627,0,0,0.43498,100.233,-42.1146)">
        <rect x="-133.532" y="96.82" width="1012.17" height="325.913" style="fill:none;"/>
        <g transform="matrix(1.3929,0,0,2.29895,-450.991,-214.349)">
            <g transform="matrix(74,0,0,74,233.055,193.137)">
                <path d="M0.308,0.012C0.454,0.012 0.585,-0.066 0.585,-0.206C0.585,-0.332 0.488,-0.373 0.36,-0.399L0.27,-0.418C0.217,-0.429 0.189,-0.452 0.189,-0.489C0.189,-0.535 0.236,-0.561 0.303,-0.561C0.365,-0.561 0.414,-0.535 0.433,-0.489L0.567,-0.538C0.525,-0.638 0.421,-0.68 0.315,-0.68C0.164,-0.68 0.041,-0.603 0.041,-0.476C0.041,-0.375 0.112,-0.315 0.237,-0.29L0.32,-0.273C0.403,-0.256 0.437,-0.235 0.437,-0.189C0.437,-0.13 0.377,-0.108 0.312,-0.108C0.237,-0.108 0.176,-0.144 0.159,-0.204L0.025,-0.155C0.065,-0.048 0.168,0.012 0.308,0.012Z" style="fill:rgb(0,3,3);fill-rule:nonzero;"/>
            </g>
            <g transform="matrix(74,0,0,74,277.419,193.137)">
                <path d="M0.056,0.162L0.197,0.162L0.197,-0.072C0.229,-0.017 0.293,0.012 0.35,0.012C0.476,0.012 0.568,-0.085 0.568,-0.248C0.568,-0.409 0.476,-0.509 0.35,-0.509C0.293,-0.509 0.229,-0.481 0.197,-0.426L0.177,-0.496L0.056,-0.496L0.056,0.162ZM0.306,-0.099C0.242,-0.099 0.191,-0.146 0.191,-0.25C0.191,-0.355 0.242,-0.398 0.306,-0.398C0.369,-0.398 0.42,-0.343 0.42,-0.248C0.42,-0.151 0.369,-0.099 0.306,-0.099Z" style="fill:rgb(0,3,3);fill-rule:nonzero;"/>
            </g>
            <g transform="matrix(74,0,0,74,321.597,193.137)">
                <path d="M0.196,0.012C0.269,0.012 0.326,-0.01 0.362,-0.061L0.38,-0L0.511,-0C0.502,-0.044 0.494,-0.125 0.494,-0.193L0.494,-0.303C0.494,-0.451 0.416,-0.509 0.274,-0.509C0.166,-0.509 0.088,-0.46 0.057,-0.392L0.177,-0.35C0.187,-0.391 0.222,-0.412 0.267,-0.412C0.327,-0.412 0.359,-0.384 0.359,-0.326L0.359,-0.311C0.156,-0.296 0.024,-0.25 0.024,-0.133C0.024,-0.043 0.101,0.012 0.196,0.012ZM0.247,-0.086C0.202,-0.086 0.171,-0.109 0.171,-0.143C0.171,-0.195 0.24,-0.216 0.359,-0.224L0.359,-0.204C0.359,-0.113 0.311,-0.086 0.247,-0.086Z" style="fill:rgb(0,3,3);fill-rule:nonzero;"/>
            </g>
            <g transform="matrix(74,0,0,74,361.741,193.137)">
                <path d="M0.251,-0L0.342,-0L0.342,-0.116L0.297,-0.116C0.249,-0.116 0.235,-0.125 0.235,-0.173L0.235,-0.388L0.342,-0.388L0.342,-0.496L0.235,-0.496L0.235,-0.62L0.094,-0.62L0.094,-0.496L0.012,-0.496L0.012,-0.388L0.094,-0.388L0.094,-0.138C0.094,-0.023 0.133,-0 0.251,-0Z" style="fill:rgb(0,3,3);fill-rule:nonzero;"/>
            </g>
            <g transform="matrix(74,0,0,74,389.78,193.137)">
                <path d="M0.102,-0L0.244,-0L0.244,-0.496L0.021,-0.496L0.021,-0.389L0.102,-0.389L0.102,-0ZM0.165,-0.58C0.212,-0.58 0.25,-0.618 0.25,-0.666C0.25,-0.713 0.212,-0.751 0.165,-0.751C0.117,-0.751 0.079,-0.713 0.079,-0.666C0.079,-0.618 0.117,-0.58 0.165,-0.58Z" style="fill:rgb(0,3,3);fill-rule:nonzero;"/>
            </g>
            <g transform="matrix(74,0,0,74,412.128,193.137)">
                <path d="M0.196,0.012C0.269,0.012 0.326,-0.01 0.362,-0.061L0.38,-0L0.511,-0C0.502,-0.044 0.494,-0.125 0.494,-0.193L0.494,-0.303C0.494,-0.451 0.416,-0.509 0.274,-0.509C0.166,-0.509 0.088,-0.46 0.057,-0.392L0.177,-0.35C0.187,-0.391 0.222,-0.412 0.267,-0.412C0.327,-0.412 0.359,-0.384 0.359,-0.326L0.359,-0.311C0.156,-0.296 0.024,-0.25 0.024,-0.133C0.024,-0.043 0.101,0.012 0.196,0.012ZM0.247,-0.086C0.202,-0.086 0.171,-0.109 0.171,-0.143C0.171,-0.195 0.24,-0.216 0.359,-0.224L0.359,-0.204C0.359,-0.113 0.311,-0.086 0.247,-0.086Z" style="fill:rgb(0,3,3);fill-rule:nonzero;"/>
            </g>
            <g transform="matrix(74,0,0,74,453.05,193.137)">
                <path d="M0.21,-0L0.3,-0L0.3,-0.116L0.259,-0.116C0.208,-0.116 0.194,-0.126 0.194,-0.172L0.194,-0.708L0.053,-0.708L0.053,-0.137C0.053,-0.023 0.092,-0 0.21,-0Z" style="fill:rgb(0,3,3);fill-rule:nonzero;"/>
            </g>
            <g transform="matrix(74,0,0,74,499.966,193.137)">
                <path d="M0.059,-0L0.274,-0C0.499,-0 0.657,-0.086 0.657,-0.334C0.657,-0.578 0.501,-0.668 0.274,-0.668L0.059,-0.668L0.059,-0ZM0.276,-0.125L0.207,-0.125L0.207,-0.545L0.276,-0.545C0.406,-0.545 0.505,-0.508 0.505,-0.334C0.505,-0.16 0.407,-0.125 0.276,-0.125Z" style="fill:rgb(0,3,3);fill-rule:nonzero;"/>
            </g>
            <g transform="matrix(74,0,0,74,550.952,193.137)">
                <path d="M0.196,0.012C0.269,0.012 0.326,-0.01 0.362,-0.061L0.38,-0L0.511,-0C0.502,-0.044 0.494,-0.125 0.494,-0.193L0.494,-0.303C0.494,-0.451 0.416,-0.509 0.274,-0.509C0.166,-0.509 0.088,-0.46 0.057,-0.392L0.177,-0.35C0.187,-0.391 0.222,-0.412 0.267,-0.412C0.327,-0.412 0.359,-0.384 0.359,-0.326L0.359,-0.311C0.156,-0.296 0.024,-0.25 0.024,-0.133C0.024,-0.043 0.101,0.012 0.196,0.012ZM0.247,-0.086C0.202,-0.086 0.171,-0.109 0.171,-0.143C0.171,-0.195 0.24,-0.216 0.359,-0.224L0.359,-0.204C0.359,-0.113 0.311,-0.086 0.247,-0.086Z" style="fill:rgb(0,3,3);fill-rule:nonzero;"/>
            </g>
            <g transform="matrix(74,0,0,74,591.096,193.137)">
                <path d="M0.251,-0L0.342,-0L0.342,-0.116L0.297,-0.116C0.249,-0.116 0.235,-0.125 0.235,-0.173L0.235,-0.388L0.342,-0.388L0.342,-0.496L0.235,-0.496L0.235,-0.62L0.094,-0.62L0.094,-0.496L0.012,-0.496L0.012,-0.388L0.094,-0.388L0.094,-0.138C0.094,-0.023 0.133,-0 0.251,-0Z" style="fill:rgb(0,3,3);fill-rule:nonzero;"/>
            </g>
            <g transform="matrix(74,0,0,74,618.994,193.137)">
                <path d="M0.196,0.012C0.269,0.012 0.326,-0.01 0.362,-0.061L0.38,-0L0.511,-0C0.502,-0.044 0.494,-0.125 0.494,-0.193L0.494,-0.303C0.494,-0.451 0.416,-0.509 0.274,-0.509C0.166,-0.509 0.088,-0.46 0.057,-0.392L0.177,-0.35C0.187,-0.391 0.222,-0.412 0.267,-0.412C0.327,-0.412 0.359,-0.384 0.359,-0.326L0.359,-0.311C0.156,-0.296 0.024,-0.25 0.024,-0.133C0.024,-0.043 0.101,0.012 0.196,0.012ZM0.247,-0.086C0.202,-0.086 0.171,-0.109 0.171,-0.143C0.171,-0.195 0.24,-0.216 0.359,-0.224L0.359,-0.204C0.359,-0.113 0.311,-0.086 0.247,-0.086Z" style="fill:rgb(0,3,3);fill-rule:nonzero;"/>
            </g>
            <g transform="matrix(74,0,0,74,683.152,193.137)">
                <path d="M0.308,0.012C0.454,0.012 0.585,-0.066 0.585,-0.206C0.585,-0.332 0.488,-0.373 0.36,-0.399L0.27,-0.418C0.217,-0.429 0.189,-0.452 0.189,-0.489C0.189,-0.535 0.236,-0.561 0.303,-0.561C0.365,-0.561 0.414,-0.535 0.433,-0.489L0.567,-0.538C0.525,-0.638 0.421,-0.68 0.315,-0.68C0.164,-0.68 0.041,-0.603 0.041,-0.476C0.041,-0.375 0.112,-0.315 0.237,-0.29L0.32,-0.273C0.403,-0.256 0.437,-0.235 0.437,-0.189C0.437,-0.13 0.377,-0.108 0.312,-0.108C0.237,-0.108 0.176,-0.144 0.159,-0.204L0.025,-0.155C0.065,-0.048 0.168,0.012 0.308,0.012Z" style="fill:rgb(0,3,3);fill-rule:nonzero;"/>
            </g>
            <g transform="matrix(74,0,0,74,728.366,193.137)">
                <path d="M0.28,0.012C0.36,0.012 0.449,-0.021 0.498,-0.107L0.381,-0.149C0.363,-0.119 0.332,-0.099 0.288,-0.099C0.231,-0.099 0.174,-0.139 0.174,-0.25C0.174,-0.358 0.23,-0.398 0.288,-0.398C0.328,-0.398 0.363,-0.38 0.38,-0.339L0.499,-0.382C0.455,-0.474 0.367,-0.509 0.281,-0.509C0.131,-0.509 0.029,-0.405 0.029,-0.25C0.029,-0.094 0.119,0.012 0.28,0.012Z" style="fill:rgb(0,3,3);fill-rule:nonzero;"/>
            </g>
            <g transform="matrix(74,0,0,74,766.746,193.137)">
                <path d="M0.102,-0L0.244,-0L0.244,-0.496L0.021,-0.496L0.021,-0.389L0.102,-0.389L0.102,-0ZM0.165,-0.58C0.212,-0.58 0.25,-0.618 0.25,-0.666C0.25,-0.713 0.212,-0.751 0.165,-0.751C0.117,-0.751 0.079,-0.713 0.079,-0.666C0.079,-0.618 0.117,-0.58 0.165,-0.58Z" style="fill:rgb(0,3,3);fill-rule:nonzero;"/>
            </g>
            <g transform="matrix(74,0,0,74,789.094,193.137)">
                <path d="M0.297,0.012C0.38,0.012 0.461,-0.024 0.511,-0.097L0.396,-0.138C0.376,-0.115 0.342,-0.099 0.293,-0.099C0.239,-0.099 0.183,-0.13 0.169,-0.211L0.542,-0.211C0.554,-0.382 0.454,-0.509 0.291,-0.509C0.148,-0.509 0.029,-0.408 0.029,-0.25C0.029,-0.089 0.137,0.012 0.297,0.012ZM0.409,-0.299L0.168,-0.299C0.183,-0.375 0.236,-0.402 0.295,-0.402C0.358,-0.402 0.405,-0.363 0.409,-0.299Z" style="fill:rgb(0,3,3);fill-rule:nonzero;"/>
            </g>
            <g transform="matrix(74,0,0,74,830.83,193.137)">
                <path d="M0.056,-0L0.197,-0L0.197,-0.257C0.197,-0.35 0.229,-0.398 0.295,-0.398C0.372,-0.398 0.377,-0.339 0.377,-0.268L0.377,-0L0.518,-0L0.518,-0.304C0.518,-0.435 0.478,-0.509 0.351,-0.509C0.274,-0.509 0.22,-0.467 0.197,-0.429L0.178,-0.496L0.056,-0.496L0.056,-0Z" style="fill:rgb(0,3,3);fill-rule:nonzero;"/>
            </g>
            <g transform="matrix(74,0,0,74,873.158,193.137)">
                <path d="M0.28,0.012C0.36,0.012 0.449,-0.021 0.498,-0.107L0.381,-0.149C0.363,-0.119 0.332,-0.099 0.288,-0.099C0.231,-0.099 0.174,-0.139 0.174,-0.25C0.174,-0.358 0.23,-0.398 0.288,-0.398C0.328,-0.398 0.363,-0.38 0.38,-0.339L0.499,-0.382C0.455,-0.474 0.367,-0.509 0.281,-0.509C0.131,-0.509 0.029,-0.405 0.029,-0.25C0.029,-0.094 0.119,0.012 0.28,0.012Z" style="fill:rgb(0,3,3);fill-rule:nonzero;"/>
            </g>
            <g transform="matrix(74,0,0,74,909.839,193.137)">
                <path d="M0.297,0.012C0.38,0.012 0.461,-0.024 0.511,-0.097L0.396,-0.138C0.376,-0.115 0.342,-0.099 0.293,-0.099C0.239,-0.099 0.183,-0.13 0.169,-0.211L0.542,-0.211C0.554,-0.382 0.454,-0.509 0.291,-0.509C0.148,-0.509 0.029,-0.408 0.029,-0.25C0.029,-0.089 0.137,0.012 0.297,0.012ZM0.409,-0.299L0.168,-0.299C0.183,-0.375 0.236,-0.402 0.295,-0.402C0.358,-0.402 0.405,-0.363 0.409,-0.299Z" style="fill:rgb(0,3,3);fill-rule:nonzero;"/>
            </g>
        </g>
        <g transform="matrix(1.33222,0,0,2.29895,-436.848,-65.3216)">
            <g transform="matrix(1.04555,0,0,1,-10.6162,0)">
                <g transform="matrix(74,0,0,74,233.055,193.137)">
                    <path d="M0.161,0.012C0.251,0.012 0.312,-0.034 0.344,-0.08L0.345,-0L0.391,-0C0.391,-0.044 0.395,-0.1 0.415,-0.194L0.436,-0.295C0.464,-0.43 0.408,-0.506 0.28,-0.506C0.2,-0.506 0.123,-0.47 0.087,-0.386L0.144,-0.372C0.164,-0.433 0.221,-0.459 0.277,-0.459C0.37,-0.459 0.402,-0.399 0.383,-0.306L0.381,-0.297C0.132,-0.297 0.007,-0.245 0.007,-0.113C0.007,-0.027 0.082,0.012 0.161,0.012ZM0.174,-0.036C0.115,-0.036 0.064,-0.063 0.064,-0.121C0.064,-0.211 0.16,-0.253 0.372,-0.251L0.36,-0.195C0.336,-0.081 0.25,-0.036 0.174,-0.036Z" style="fill:rgb(85,171,185);fill-rule:nonzero;"/>
                </g>
                <g transform="matrix(74,0,0,74,269.858,193.137)">
                    <path d="M0.227,0.012C0.295,0.012 0.368,-0.017 0.422,-0.09L0.371,-0.111C0.34,-0.061 0.285,-0.038 0.232,-0.038C0.137,-0.038 0.093,-0.107 0.093,-0.197C0.093,-0.297 0.151,-0.456 0.292,-0.456C0.347,-0.456 0.394,-0.427 0.413,-0.377L0.464,-0.395C0.438,-0.459 0.382,-0.506 0.296,-0.506C0.14,-0.506 0.036,-0.35 0.036,-0.196C0.036,-0.081 0.102,0.012 0.227,0.012Z" style="fill:rgb(85,171,185);fill-rule:nonzero;"/>
                </g>
                <g transform="matrix(74,0,0,74,304.638,193.137)">
                    <path d="M0.023,-0L0.079,-0L0.127,-0.228C0.155,-0.36 0.22,-0.445 0.352,-0.447L0.363,-0.501C0.277,-0.505 0.201,-0.45 0.165,-0.402L0.169,-0.496L0.128,-0.496L0.023,-0Z" style="fill:rgb(85,171,185);fill-rule:nonzero;"/>
                </g>
                <g transform="matrix(74,0,0,74,365.975,193.137)">
                    <path d="M0.201,0.012C0.303,0.012 0.389,-0.05 0.389,-0.148C0.389,-0.214 0.336,-0.247 0.255,-0.277L0.213,-0.292C0.162,-0.311 0.128,-0.332 0.128,-0.372C0.128,-0.43 0.193,-0.457 0.25,-0.457C0.301,-0.457 0.354,-0.43 0.368,-0.384L0.422,-0.405C0.4,-0.469 0.327,-0.506 0.256,-0.506C0.162,-0.506 0.075,-0.453 0.075,-0.361C0.075,-0.303 0.118,-0.271 0.188,-0.245L0.23,-0.23C0.291,-0.208 0.334,-0.186 0.334,-0.138C0.334,-0.077 0.277,-0.037 0.207,-0.037C0.139,-0.037 0.081,-0.073 0.069,-0.135L0.015,-0.115C0.034,-0.037 0.117,0.012 0.201,0.012Z" style="fill:rgb(85,171,185);fill-rule:nonzero;"/>
                </g>
                <g transform="matrix(74,0,0,74,399.127,193.137)">
                    <path d="M0.201,0.012C0.303,0.012 0.389,-0.05 0.389,-0.148C0.389,-0.214 0.336,-0.247 0.255,-0.277L0.213,-0.292C0.162,-0.311 0.128,-0.332 0.128,-0.372C0.128,-0.43 0.193,-0.457 0.25,-0.457C0.301,-0.457 0.354,-0.43 0.368,-0.384L0.422,-0.405C0.4,-0.469 0.327,-0.506 0.256,-0.506C0.162,-0.506 0.075,-0.453 0.075,-0.361C0.075,-0.303 0.118,-0.271 0.188,-0.245L0.23,-0.23C0.291,-0.208 0.334,-0.186 0.334,-0.138C0.334,-0.077 0.277,-0.037 0.207,-0.037C0.139,-0.037 0.081,-0.073 0.069,-0.135L0.015,-0.115C0.034,-0.037 0.117,0.012 0.201,0.012Z" style="fill:rgb(85,171,185);fill-rule:nonzero;"/>
                </g>
            </g>
            <g transform="matrix(1.04555,0,0,1,-20.1047,0)">
                <g transform="matrix(74,0,0,74,464.59,193.137)">
                    <path d="M0.059,-0L0.534,-0L0.534,-0.13L0.207,-0.13L0.207,-0.668L0.059,-0.668L0.059,-0Z" style="fill:rgb(0,3,3);fill-rule:nonzero;"/>
                </g>
                <g transform="matrix(74,0,0,74,505.438,193.137)">
                    <path d="M0.196,0.012C0.269,0.012 0.326,-0.01 0.362,-0.061L0.38,-0L0.511,-0C0.502,-0.044 0.494,-0.125 0.494,-0.193L0.494,-0.303C0.494,-0.451 0.416,-0.509 0.274,-0.509C0.166,-0.509 0.088,-0.46 0.057,-0.392L0.177,-0.35C0.187,-0.391 0.222,-0.412 0.267,-0.412C0.327,-0.412 0.359,-0.384 0.359,-0.326L0.359,-0.311C0.156,-0.296 0.024,-0.25 0.024,-0.133C0.024,-0.043 0.101,0.012 0.196,0.012ZM0.247,-0.086C0.202,-0.086 0.171,-0.109 0.171,-0.143C0.171,-0.195 0.24,-0.216 0.359,-0.224L0.359,-0.204C0.359,-0.113 0.311,-0.086 0.247,-0.086Z" style="fill:rgb(0,3,3);fill-rule:nonzero;"/>
                </g>
                <g transform="matrix(74,0,0,74,546.36,193.137)">
                    <path d="M0.056,-0L0.197,-0L0.197,-0.257C0.197,-0.35 0.229,-0.398 0.295,-0.398C0.372,-0.398 0.377,-0.339 0.377,-0.268L0.377,-0L0.518,-0L0.518,-0.304C0.518,-0.435 0.478,-0.509 0.351,-0.509C0.274,-0.509 0.22,-0.467 0.197,-0.429L0.178,-0.496L0.056,-0.496L0.056,-0Z" style="fill:rgb(0,3,3);fill-rule:nonzero;"/>
                </g>
                <g transform="matrix(74,0,0,74,588.688,193.137)">
                    <path d="M0.293,0.201C0.442,0.201 0.54,0.133 0.54,-0.032L0.54,-0.496L0.42,-0.496L0.4,-0.426C0.363,-0.48 0.304,-0.51 0.238,-0.51C0.134,-0.51 0.029,-0.429 0.029,-0.259C0.029,-0.106 0.134,-0.017 0.243,-0.017C0.302,-0.017 0.359,-0.043 0.4,-0.096L0.4,-0.009C0.4,0.069 0.349,0.093 0.297,0.093C0.243,0.093 0.21,0.071 0.192,0.039L0.076,0.088C0.119,0.174 0.211,0.201 0.293,0.201ZM0.291,-0.127C0.228,-0.127 0.177,-0.173 0.177,-0.265C0.177,-0.356 0.228,-0.398 0.291,-0.398C0.353,-0.398 0.405,-0.363 0.405,-0.262C0.405,-0.16 0.353,-0.127 0.291,-0.127Z" style="fill:rgb(0,3,3);fill-rule:nonzero;"/>
                </g>
                <g transform="matrix(74,0,0,74,632.644,193.137)">
                    <path d="M0.224,0.012C0.301,0.012 0.341,-0.021 0.37,-0.07L0.391,-0L0.512,-0L0.512,-0.496L0.37,-0.496L0.37,-0.233C0.37,-0.139 0.342,-0.099 0.276,-0.099C0.199,-0.099 0.195,-0.159 0.195,-0.231L0.195,-0.496L0.054,-0.496L0.054,-0.195C0.054,-0.064 0.094,0.012 0.224,0.012Z" style="fill:rgb(0,3,3);fill-rule:nonzero;"/>
                </g>
                <g transform="matrix(74,0,0,74,674.676,193.137)">
                    <path d="M0.196,0.012C0.269,0.012 0.326,-0.01 0.362,-0.061L0.38,-0L0.511,-0C0.502,-0.044 0.494,-0.125 0.494,-0.193L0.494,-0.303C0.494,-0.451 0.416,-0.509 0.274,-0.509C0.166,-0.509 0.088,-0.46 0.057,-0.392L0.177,-0.35C0.187,-0.391 0.222,-0.412 0.267,-0.412C0.327,-0.412 0.359,-0.384 0.359,-0.326L0.359,-0.311C0.156,-0.296 0.024,-0.25 0.024,-0.133C0.024,-0.043 0.101,0.012 0.196,0.012ZM0.247,-0.086C0.202,-0.086 0.171,-0.109 0.171,-0.143C0.171,-0.195 0.24,-0.216 0.359,-0.224L0.359,-0.204C0.359,-0.113 0.311,-0.086 0.247,-0.086Z" style="fill:rgb(0,3,3);fill-rule:nonzero;"/>
                </g>
                <g transform="matrix(74,0,0,74,715.598,193.137)">
                    <path d="M0.293,0.201C0.442,0.201 0.54,0.133 0.54,-0.032L0.54,-0.496L0.42,-0.496L0.4,-0.426C0.363,-0.48 0.304,-0.51 0.238,-0.51C0.134,-0.51 0.029,-0.429 0.029,-0.259C0.029,-0.106 0.134,-0.017 0.243,-0.017C0.302,-0.017 0.359,-0.043 0.4,-0.096L0.4,-0.009C0.4,0.069 0.349,0.093 0.297,0.093C0.243,0.093 0.21,0.071 0.192,0.039L0.076,0.088C0.119,0.174 0.211,0.201 0.293,0.201ZM0.291,-0.127C0.228,-0.127 0.177,-0.173 0.177,-0.265C0.177,-0.356 0.228,-0.398 0.291,-0.398C0.353,-0.398 0.405,-0.363 0.405,-0.262C0.405,-0.16 0.353,-0.127 0.291,-0.127Z" style="fill:rgb(0,3,3);fill-rule:nonzero;"/>
                </g>
                <g transform="matrix(74,0,0,74,759.554,193.137)">
                    <path d="M0.297,0.012C0.38,0.012 0.461,-0.024 0.511,-0.097L0.396,-0.138C0.376,-0.115 0.342,-0.099 0.293,-0.099C0.239,-0.099 0.183,-0.13 0.169,-0.211L0.542,-0.211C0.554,-0.382 0.454,-0.509 0.291,-0.509C0.148,-0.509 0.029,-0.408 0.029,-0.25C0.029,-0.089 0.137,0.012 0.297,0.012ZM0.409,-0.299L0.168,-0.299C0.183,-0.375 0.236,-0.402 0.295,-0.402C0.358,-0.402 0.405,-0.363 0.409,-0.299Z" style="fill:rgb(0,3,3);fill-rule:nonzero;"/>
                </g>
                <g transform="matrix(74,0,0,74,801.29,193.137)">
                    <path d="M0.259,0.013C0.387,0.013 0.492,-0.044 0.492,-0.153C0.492,-0.241 0.436,-0.278 0.319,-0.3L0.235,-0.316C0.189,-0.324 0.171,-0.336 0.171,-0.36C0.171,-0.387 0.201,-0.406 0.254,-0.406C0.304,-0.406 0.341,-0.389 0.356,-0.352L0.477,-0.396C0.44,-0.478 0.352,-0.509 0.258,-0.509C0.142,-0.509 0.036,-0.455 0.036,-0.353C0.036,-0.271 0.101,-0.226 0.195,-0.208L0.276,-0.194C0.336,-0.183 0.356,-0.168 0.356,-0.144C0.356,-0.109 0.311,-0.091 0.261,-0.091C0.204,-0.091 0.152,-0.115 0.14,-0.158L0.018,-0.114C0.054,-0.032 0.146,0.013 0.259,0.013Z" style="fill:rgb(0,3,3);fill-rule:nonzero;"/>
                </g>
            </g>
        </g>
        <g transform="matrix(0.10153,0,0,0.175206,33.6139,336.669)">
            <g transform="matrix(1,0,0,1,-320,-320)">
                <path d="M416,344L225,344C227.9,408.5 242.2,467.9 262.5,511.4C273.9,535.9 286.2,553.2 297.6,563.8C308.8,574.3 316.5,576 320.5,576C324.5,576 332.2,574.3 343.4,563.8C354.8,553.2 367.1,535.8 378.5,511.4C398.8,467.9 413.1,408.5 416,344ZM224.9,296L415.8,296C413,231.5 398.7,172.1 378.4,128.6C367,104.2 354.7,86.8 343.3,76.2C332.1,65.7 324.4,64 320.4,64C316.4,64 308.7,65.7 297.5,76.2C286.1,86.8 273.8,104.2 262.4,128.6C242.1,172.1 227.8,231.5 224.9,296ZM176.9,296C180.4,210.4 202.5,130.9 234.8,78.7C142.7,111.3 74.9,195.2 65.5,296L176.9,296ZM65.5,344C74.9,444.8 142.7,528.7 234.8,561.3C202.5,509.1 180.4,429.6 176.9,344L65.5,344ZM463.9,344C460.4,429.6 438.3,509.1 406,561.3C498.1,528.6 565.9,444.8 575.3,344L463.9,344ZM575.3,296C565.9,195.2 498.1,111.3 406,78.7C438.3,130.9 460.4,210.4 463.9,296L575.3,296Z" style="fill:rgb(85,171,185);fill-rule:nonzero;stroke:rgb(85,171,185);stroke-width:1px;"/>
            </g>
        </g>
    </g>
</svg>
